<svg width="37" height="37" viewBox="0 0 37 37" fill="red" xmlns="http://www.w3.org/2000/svg">
<mask id="path-1-inside-1" fill="white">
<path fill-rule="evenodd" clip-rule="evenodd" d="M14.5932 2.53999C14.82 1.07824 16.0785 0 17.5577 0H19.4423C20.9215 0 22.18 1.07824 22.4068 2.53999L22.7692 4.87553C23.5805 5.13398 24.3599 5.46412 25.0998 5.85852L27.0229 4.45204C28.2169 3.57882 29.8692 3.70625 30.9152 4.75223L32.2478 6.0848C33.2937 7.13079 33.4212 8.78308 32.548 9.97708L31.0751 11.991C31.4281 12.697 31.7233 13.4369 31.9547 14.2045L34.46 14.5932C35.9218 14.82 37 16.0785 37 17.5577V19.4423C37 20.9215 35.9218 22.18 34.46 22.4068L31.7961 22.8202C31.5594 23.5112 31.2704 24.178 30.9338 24.8158L32.5479 27.0229C33.4212 28.2169 33.2937 29.8692 32.2478 30.9152L30.9152 32.2478C29.8692 33.2938 28.2169 33.4212 27.0229 32.548L24.7236 30.8664C24.1209 31.1647 23.4936 31.421 22.8457 31.6315L22.4068 34.46C22.18 35.9218 20.9215 37 19.4423 37H17.5577C16.0785 37 14.82 35.9218 14.5932 34.46L14.1543 31.6315C13.5064 31.421 12.8791 31.1647 12.2764 30.8664L9.97709 32.548C8.78309 33.4212 7.1308 33.2937 6.08481 32.2478L4.75224 30.9152C3.70626 29.8692 3.57882 28.2169 4.45205 27.0229L6.06624 24.8158C5.72959 24.178 5.44057 23.5112 5.20392 22.8202L2.53999 22.4068C1.07824 22.18 0 20.9215 0 19.4423V17.5577C0 16.0785 1.07824 14.82 2.53999 14.5932L5.04527 14.2045C5.27665 13.4369 5.57192 12.697 5.92489 11.991L4.45204 9.97711C3.57882 8.78311 3.70625 7.13081 4.75223 6.08483L6.0848 4.75225C7.13078 3.70627 8.78308 3.57884 9.97708 4.45206L11.9002 5.85853C12.6401 5.46413 13.4195 5.13398 14.2308 4.87553L14.5932 2.53999Z"/>
</mask>
<path d="M14.5932 2.53999L11.6287 2.07998V2.07998L14.5932 2.53999ZM22.4068 2.53999L19.4423 3V3L22.4068 2.53999ZM22.7692 4.87553L19.8047 5.33554L20.0894 7.1704L21.8586 7.734L22.7692 4.87553ZM25.0998 5.85852L23.6886 8.5059L25.3506 9.39178L26.8707 8.28003L25.0998 5.85852ZM27.0229 4.45204L25.252 2.03053L25.252 2.03053L27.0229 4.45204ZM30.9152 4.75223L28.7939 6.87355L28.7939 6.87355L30.9152 4.75223ZM32.2478 6.0848L34.3691 3.96349L34.3691 3.96348L32.2478 6.0848ZM32.548 9.97708L34.9695 11.748L34.9695 11.748L32.548 9.97708ZM31.0751 11.991L28.6536 10.22L27.5738 11.6965L28.3918 13.3325L31.0751 11.991ZM31.9547 14.2045L29.0824 15.0703L29.6277 16.8793L31.4947 17.169L31.9547 14.2045ZM34.46 14.5932L34.92 11.6287L34.46 14.5932ZM34.46 22.4068L34 19.4423L34.46 22.4068ZM31.7961 22.8202L31.3361 19.8556L29.5451 20.1336L28.9579 21.8482L31.7961 22.8202ZM30.9338 24.8158L28.2807 23.4153L27.4055 25.0734L28.5122 26.5867L30.9338 24.8158ZM32.5479 27.0229L30.1264 28.7939L30.1264 28.7939L32.5479 27.0229ZM32.2478 30.9152L34.3691 33.0365L32.2478 30.9152ZM30.9152 32.2478L33.0365 34.3691L33.0365 34.3691L30.9152 32.2478ZM27.0229 32.548L25.2519 34.9695V34.9695L27.0229 32.548ZM24.7236 30.8664L26.4946 28.4449L25.0249 27.3701L23.3931 28.1776L24.7236 30.8664ZM22.8457 31.6315L21.9187 28.7784L20.1641 29.3484L19.8812 31.1715L22.8457 31.6315ZM22.4068 34.46L19.4423 34L22.4068 34.46ZM14.5932 34.46L17.5577 34L14.5932 34.46ZM14.1543 31.6315L17.1188 31.1715L16.8359 29.3484L15.0813 28.7784L14.1543 31.6315ZM12.2764 30.8664L13.6069 28.1776L11.9751 27.3701L10.5054 28.4449L12.2764 30.8664ZM9.97709 32.548L8.20614 30.1264L8.20613 30.1264L9.97709 32.548ZM6.08481 32.2478L3.96349 34.3691L3.9635 34.3691L6.08481 32.2478ZM4.75224 30.9152L2.63092 33.0365H2.63092L4.75224 30.9152ZM4.45205 27.0229L6.87356 28.7939H6.87356L4.45205 27.0229ZM6.06624 24.8158L8.48775 26.5867L9.59454 25.0733L8.71929 23.4153L6.06624 24.8158ZM5.20392 22.8202L8.04211 21.8482L7.45492 20.1336L5.66393 19.8556L5.20392 22.8202ZM2.53999 22.4068L2.07998 25.3713H2.07998L2.53999 22.4068ZM2.53999 14.5932L3 17.5577H3L2.53999 14.5932ZM5.04527 14.2045L5.50528 17.169L7.37231 16.8793L7.91761 15.0703L5.04527 14.2045ZM5.92489 11.991L8.60822 13.3326L9.42618 11.6965L8.3464 10.22L5.92489 11.991ZM4.45204 9.97711L2.03053 11.7481H2.03053L4.45204 9.97711ZM4.75223 6.08483L6.87355 8.20615L4.75223 6.08483ZM9.97708 4.45206L11.748 2.03055L9.97708 4.45206ZM11.9002 5.85853L10.1293 8.28004L11.6494 9.3918L13.3114 8.50591L11.9002 5.85853ZM14.2308 4.87553L15.1414 7.734L16.9106 7.1704L17.1953 5.33554L14.2308 4.87553ZM17.5577 -3C14.5992 -3 12.0823 -0.843511 11.6287 2.07998L17.5577 3L17.5577 3V-3ZM19.4423 -3H17.5577V3H19.4423V-3ZM25.3713 2.07998C24.9177 -0.843519 22.4007 -3 19.4423 -3V3V3L25.3713 2.07998ZM25.7337 4.41551L25.3713 2.07998L19.4423 3L19.8047 5.33554L25.7337 4.41551ZM26.5109 3.21113C25.6126 2.73228 24.6658 2.33116 23.6798 2.01705L21.8586 7.734C22.4952 7.93679 23.1072 8.19596 23.6886 8.5059L26.5109 3.21113ZM26.8707 8.28003L28.7939 6.87355L25.252 2.03053L23.3288 3.43701L26.8707 8.28003ZM28.7939 6.87355L28.7939 6.87355L33.0365 2.63091C30.9445 0.538943 27.64 0.284088 25.252 2.03053L28.7939 6.87355ZM28.7939 6.87355L30.1264 8.20613L34.3691 3.96348L33.0365 2.63091L28.7939 6.87355ZM30.1264 8.20612V8.20613L34.9695 11.748C36.7159 9.36004 36.461 6.05545 34.3691 3.96349L30.1264 8.20612ZM30.1264 8.20612L28.6536 10.22L33.4966 13.7619L34.9695 11.748L30.1264 8.20612ZM34.8271 13.3386C34.5459 12.4057 34.1871 11.5068 33.7584 10.6494L28.3918 13.3325C28.6691 13.8872 28.9008 14.468 29.0824 15.0703L34.8271 13.3386ZM34.92 11.6287L32.4147 11.2399L31.4947 17.169L34 17.5577L34.92 11.6287ZM40 17.5577C40 14.5993 37.8435 12.0823 34.92 11.6287L34 17.5577H40ZM40 19.4423V17.5577H34V19.4423H40ZM34.92 25.3713C37.8435 24.9177 40 22.4008 40 19.4423H34L34.92 25.3713ZM32.2561 25.7847L34.92 25.3713L34 19.4423L31.3361 19.8556L32.2561 25.7847ZM33.5868 26.2162C33.9955 25.4419 34.3467 24.632 34.6343 23.7921L28.9579 21.8482C28.7722 22.3905 28.5453 22.9141 28.2807 23.4153L33.5868 26.2162ZM34.9695 25.252L33.3553 23.0448L28.5122 26.5867L30.1264 28.7939L34.9695 25.252ZM34.3691 33.0365C36.461 30.9446 36.7159 27.64 34.9694 25.252L30.1264 28.7939L30.1264 28.7939L34.3691 33.0365ZM33.0365 34.3691L34.3691 33.0365L30.1264 28.7939L28.7939 30.1265L33.0365 34.3691ZM25.2519 34.9695C27.6399 36.7159 30.9445 36.461 33.0365 34.3691L28.7939 30.1264L28.7939 30.1265L25.2519 34.9695ZM22.9527 33.2879L25.2519 34.9695L28.7939 30.1265L26.4946 28.4449L22.9527 33.2879ZM23.7727 34.4847C24.5601 34.2289 25.3222 33.9174 26.0542 33.5552L23.3931 28.1776C22.9195 28.412 22.4271 28.6132 21.9187 28.7784L23.7727 34.4847ZM25.3713 34.92L25.8102 32.0915L19.8812 31.1715L19.4423 34L25.3713 34.92ZM19.4423 40C22.4008 40 24.9177 37.8435 25.3713 34.92L19.4423 34V40ZM17.5577 40H19.4423V34H17.5577V40ZM11.6287 34.92C12.0823 37.8435 14.5992 40 17.5577 40V34L11.6287 34.92ZM11.1898 32.0915L11.6287 34.92L17.5577 34L17.1188 31.1715L11.1898 32.0915ZM10.9458 33.5552C11.6778 33.9174 12.4399 34.2289 13.2273 34.4847L15.0813 28.7784C14.5729 28.6132 14.0805 28.412 13.6069 28.1776L10.9458 33.5552ZM11.748 34.9695L14.0473 33.2879L10.5054 28.4449L8.20614 30.1264L11.748 34.9695ZM3.9635 34.3691C6.05546 36.461 9.36005 36.7159 11.7481 34.9695L8.20613 30.1264H8.20613L3.9635 34.3691ZM2.63092 33.0365L3.96349 34.3691L8.20613 30.1264L6.87356 28.7939L2.63092 33.0365ZM2.03054 25.252C0.284089 27.64 0.538959 30.9445 2.63092 33.0365L6.87356 28.7939L6.87356 28.7939L2.03054 25.252ZM3.64473 23.0448L2.03054 25.252L6.87356 28.7939L8.48775 26.5867L3.64473 23.0448ZM2.36572 23.7921C2.65333 24.6319 3.00445 25.4419 3.41319 26.2162L8.71929 23.4153C8.45473 22.9141 8.22782 22.3905 8.04211 21.8482L2.36572 23.7921ZM2.07998 25.3713L4.74391 25.7847L5.66393 19.8556L3 19.4423L2.07998 25.3713ZM-3 19.4423C-3 22.4008 -0.84351 24.9177 2.07998 25.3713L3.00001 19.4423L3 19.4423H-3ZM-3 17.5577V19.4423H3V17.5577H-3ZM2.07998 11.6287C-0.843519 12.0823 -3 14.5993 -3 17.5577H3H3L2.07998 11.6287ZM4.58526 11.2399L2.07998 11.6287L3 17.5577L5.50528 17.169L4.58526 11.2399ZM3.24156 10.6495C2.81291 11.5068 2.45414 12.4057 2.17293 13.3386L7.91761 15.0703C8.09916 14.468 8.33092 13.8872 8.60822 13.3326L3.24156 10.6495ZM2.03053 11.7481L3.50338 13.762L8.3464 10.22L6.87355 8.20615L2.03053 11.7481ZM2.63091 3.96351C0.538943 6.05547 0.284086 9.36007 2.03053 11.7481L6.87355 8.20615L6.87355 8.20615L2.63091 3.96351ZM3.96348 2.63093L2.63091 3.96351L6.87355 8.20615L8.20612 6.87357L3.96348 2.63093ZM11.748 2.03055C9.36004 0.284105 6.05544 0.538973 3.96348 2.63093L8.20612 6.87357L8.20613 6.87357L11.748 2.03055ZM13.6712 3.43702L11.748 2.03055L8.20613 6.87357L10.1293 8.28004L13.6712 3.43702ZM13.3202 2.01706C12.3342 2.33117 11.3874 2.73229 10.4891 3.21114L13.3114 8.50591C13.8928 8.19597 14.5048 7.93679 15.1414 7.734L13.3202 2.01706ZM11.6287 2.07998L11.2663 4.41551L17.1953 5.33554L17.5577 3L11.6287 2.07998Z" fill="white" mask="url(#path-1-inside-1)"/>
<circle cx="18.5" cy="18.5" r="7.08929" stroke="white" stroke-width="3" stroke-linecap="round"/>
</svg>
